<svg height="512" viewBox="0 0 52 58" width="512" xmlns="http://www.w3.org/2000/svg"><g id="Page-1" fill="none" fill-rule="evenodd"><g id="004---Banana-Warrior" fill-rule="nonzero"><path id="Shape" d="m18.28 29.6c-2.3193208-.0598999-4.5025576-1.1078535-6-2.88-.2322227-.2715218-.30195-.6463077-.1829165-.9831793.1190335-.3368717.4087438-.5846503.76-.65.3512561-.0653498.7106939.0616574.9429165.3331793 1.1370059 1.3581219 2.8089556 2.1539407 4.58 2.18.5522847 0 1 .4477153 1 1s-.4477153 1-1 1z" fill="#556080"/><circle id="Oval" cx="10.8" cy="24" fill="#f9c795" r="3"/><path id="Shape" d="m17 53c.5189652.0021057.953297-.3931362 1-.91.25495-2.8999369 1.1976847-5.6972879 2.75-8.16.5839471-.9709329 1.2532612-1.8878932 2-2.74.335802-.416915.2837133-1.024335-.1181682-1.3779907s-1.0109946-.3280933-1.3818318.0579907c-2.9593519 3.356214-4.8011422 7.550044-5.27 12-.0366006.2751091.0427751.5530553.2191384.7673462s.4338499.3456505.7108616.3626538z" fill="#556080"/><path id="Shape" d="m19.9 55.15c-.0781166 1.0041261-.7466133 1.8653073-1.7 2.19-1.5575057.6212249-3.2536461.8112203-4.91.55-3.77-.55-2.66-5.54.14-6.63 2-.79 4.46.34 5.71 1.86.4974805.5582983.7685213 1.2822626.76 2.03z" fill="#e57e25"/><path id="Shape" d="m35.33 38.66c-.52.82-1.08 1.62-1.67 2.4-3.3 4.31-7.84 7.9-13.2 9.18l-.54.12c-4.880197.9218799-9.92605406-.1593751-14-3-1.8848014-1.2894814-3.50417846-2.929228-4.77-4.83l1.35-5.53c4.42034578-.4523876 8.6530154-2.0215725 12.3-4.56.2797215-.2000854.5468911-.4171607.8-.65.6858264-.6053635 1.3120254-1.275095 1.87-2 1.0937243-1.4794494 2.0005855-3.0882883 2.7-4.79l2.71-7.41.09-.25c.54-1.58 1.08-3.16 1.65-4.73 1-2.74 2.4-5.51 4.82-7.22.3280917-.21928853.4965368-.61102123.43-1l-.63-3.19c-.0608366-.29771922.016999-.6069489.2115328-.84038937.1945337-.23344047.4846581-.3657628.7884672-.35961063h3.06c.3038091-.00615217.5939335.12617016.7884672.35961063.1945338.23344047.2723694.54267015.2115328.84038937l-.41 2.93c-.0740732.53346258.0701377 1.07425356.4 1.5 2.32 3.06 11.52 16.44 1.04 33.03z" fill="#f3d55b"/><path id="Shape" d="m23.5 18.19c.6661559 1.4679604.6661559 3.1520396 0 4.62-.4840257 1.2551305-1.657069 2.1114521-3 2.19-1.93 0-3.5-2-3.5-4.5s1.44-4.33 3.26-4.49" fill="#fff"/><path id="Shape" d="m23.5 18.19c-.6661559 1.4679604-.6661559 3.1520396 0 4.62.4840257 1.2551305 1.657069 2.1114521 3 2.19 1.93 0 3.5-2 3.5-4.5s-1.44-4.33-3.26-4.5" fill="#fff"/><path id="Shape" d="m45 29.23v20.77c0 1.1045695.8954305 2 2 2s2-.8954305 2-2v-41.13h-4z" fill="#a56a43"/><path id="Shape" d="m35.44 52c-.5189652.0021057-.953297-.3931362-1-.91-.2658135-2.875809-1.208137-5.6479532-2.75-8.09-.5839471-.9709329-1.2532612-1.8878932-2-2.74-.335802-.416915-.2837133-1.024335.1181682-1.3779907s1.0109946-.3280933 1.3818318.0579907c.829547.9305255 1.5726165 1.9346735 2.22 3 1.693359 2.7225648 2.7211483 5.8059328 3 9 .0356524.5312681-.3512415.9972994-.88 1.06z" fill="#556080"/><path id="Shape" d="m31 55.15c.0848119 1.0046932.7558559 1.8641004 1.71 2.19 1.5575057.6212249 3.2536461.8112203 4.91.55 3.76-.55 2.66-5.54-.14-6.63-2-.79-4.47.34-5.71 1.86-.5011075.5568019-.7757773 1.2809314-.77 2.03z" fill="#e57e25"/><g fill="#556080"><circle id="Oval" cx="20" cy="21" r="1"/><circle id="Oval" cx="26" cy="21" r="1"/><path id="Shape" d="m40.51 30.45c-1.8286673-.0254539-3.6080544-.5965292-5.11-1.64-.2858125-.2143593-.4355548-.5649147-.3928204-.9196153.0427345-.3547005.2714532-.6596588.6000001-.8s.7070078-.0947441.9928203.1196153c2.1303445 1.4990111 4.9430923 1.604783 7.18.27.469442-.2927109 1.0872891-.149442 1.38.32s.149442 1.0872891-.32 1.38c-1.2952634.8219261-2.7959833 1.2620911-4.33 1.27z"/></g><circle id="Oval" cx="47" cy="27" fill="#f9c795" r="3"/><path id="Shape" d="m47 9c4 0 5-1.29 5-1.29-3-2.71-5-7.71-5-7.71s-2 5-5 7.71c0 0 1 1.29 5 1.29z" fill="#bdc3c7"/><path id="Shape" d="m23.23 32.56c-.1862704.2755788-.4973739.4405011-.83.44-.1994427.0004453-.3944627-.0587572-.56-.17-1.24-.83-3.44-1.2-6.24-1 .6858264-.6053635 1.3120254-1.275095 1.87-2 1.9303341-.0591311 3.8408458.4038138 5.53 1.34.4454556.321502.5481521.9421456.23 1.39z" fill="#b19046"/><path id="Shape" d="m23.5 19.19c-.265803.0015368-.5212812-.1028135-.71-.29l-4.57-4.57c-.2853762-.2443899-.4096819-.6281184-.3218101-.993419.0878718-.3653005.3730906-.6505193.7383911-.7383911.3653006-.0878718.7490291.0364339.993419.3218101l4 4 6.37-4.28c.2965304-.2000687.6772713-.2267428.9988011-.0699742.3215298.1567685.5350006.4731627.56.83.0249994.3568372-.1422707.6999055-.4388011.8999742l-7 4.72c-.1823216.1233642-.4002552.1831202-.62.17z" fill="#b19046"/><path id="Shape" d="m35.33 38.66c-.52.82-1.08 1.62-1.67 2.4-3.3 4.31-7.84 7.9-13.2 9.18l-.54.12c-4.880197.9218799-9.92605406-.1593751-14-3-1.88211733-1.2886288-3.50106656-2.9245481-4.77-4.82.387157.2976434.86165412.4593239 1.35.46.93102333-.0370778 1.76042726-.5990571 2.14-1.45 7.4294299 3.5203872 16.2913349 1.7064278 21.74-4.45 4.69-5.29 6.75-12.28 7.62-19.17.56-4.4.08-9.09-2.36-12.93h2.29c.0699546.22671387.1781827.43978783.32.63 2.36 3.06 11.56 16.44 1.08 33.03z" fill="#f0c419"/><ellipse id="Oval" cx="2.5" cy="40" fill="#b19046" rx="2.5" ry="3"/><path id="Shape" d="m33.93 5h-4.16c.112957-.20035667.1485355-.43517476.1-.66l-.63-3.14c-.0608366-.29771922.016999-.6069489.2115328-.84038937.1945337-.23344047.4846581-.3657628.7884672-.35961063h3.06c.3038091-.00615217.5939335.12617016.7884672.35961063.1945338.23344047.2723694.54267015.2115328.84038937l-.41 2.93c-.0507368.28941739-.0370797.58645923.04.87z" fill="#b19046"/></g></g></svg>